<?xml version="1.0" encoding="UTF-8"?>
<svg version="1.1" xmlns="http://www.w3.org/2000/svg" width="211" height="300">
<path d="M0 0 C3.13608345 1.36145308 4.9145345 2.79511789 7.0625 5.4375 C7.6709375 6.13359375 8.279375 6.8296875 8.90625 7.546875 C10.44928656 9.35476112 11.94240338 11.20554199 13.40625 13.078125 C16.04986837 16.27173125 18.48791799 18.74510913 22 21 C25.75750124 21.03643638 28.61611673 20.19028939 32.1953125 19.06640625 C36.43453957 17.878204 40.12764872 17.60679622 44.5 17.625 C45.21792725 17.61960205 45.93585449 17.6142041 46.67553711 17.60864258 C51.60085957 17.6816888 55.50247449 18.75911214 60.1875 20.375 C63.54795319 21.41488195 63.54795319 21.41488195 67 21 C72.6981674 17.58199433 76.85127222 12.083472 81 7 C82.13196532 5.67153058 83.26722231 4.34585665 84.40625 3.0234375 C85.2621875 2.02570313 86.118125 1.02796875 87 0 C104.7303553 6.36637533 117.88235035 23.8625505 125.8125 40.3125 C135.91493923 62.26164337 136.39948901 86.66194848 128.6875 109.375 C124.86097958 119.34679799 119.8357662 127.80921506 113 136 C109.92303338 134.61502389 107.63354218 133.00995268 105.1875 130.6875 C104.56230469 130.11386719 103.93710938 129.54023438 103.29296875 128.94921875 C102 127 102 127 102.09765625 124.55859375 C103.1068694 121.69697206 104.40197652 119.77743053 106.25 117.375 C117.54577326 101.72757639 120.09421969 83.66880681 117.72314453 64.79638672 C115.36549858 51.18223541 108.24380343 37.2267418 99 27 C98.38898438 26.29746094 97.77796875 25.59492188 97.1484375 24.87109375 C94.76620006 22.2118469 94.76620006 22.2118469 92 20 C88.38226279 20.1790959 86.6586774 22.01486045 84.25 24.5625 C83.32960937 25.52349609 83.32960937 25.52349609 82.390625 26.50390625 C81.93171875 26.99761719 81.4728125 27.49132812 81 28 C82.20581331 30.65278927 82.89866017 31.92118013 85.25 33.75 C88.77579055 36.63473772 91.88585483 39.93066795 94 44 C93.88302386 46.87427097 93.15177567 47.84212764 91.15234375 49.921875 C90.42144531 50.52515625 89.69054687 51.1284375 88.9375 51.75 C88.20402344 52.36359375 87.47054687 52.9771875 86.71484375 53.609375 C86.14894531 54.06828125 85.58304688 54.5271875 85 55 C80.80339527 53.25291563 79.21374058 50.76122156 76.7578125 47.0703125 C74.51464543 44.42836018 71.92961624 42.81978948 69 41 C66.4767373 43.66437665 63.95685345 46.33192701 61.4375 49 C60.73302734 49.74378906 60.02855469 50.48757812 59.30273438 51.25390625 C54.7545239 56.07459016 50.32496741 60.97800897 46 66 C42.39851344 65.44073563 41.03882885 64.27530036 38.77734375 61.46875 C34.94539905 56.88474138 30.81012019 52.69709955 26.5625 48.5 C25.83095703 47.77296875 25.09941406 47.0459375 24.34570312 46.296875 C22.56610176 44.52890501 20.78419082 42.76333622 19 41 C8.7075252 48.20224775 2.49461136 57.52694319 0 70 C-1.12411642 81.55406262 -0.08865467 92.54032407 6.75 102.3125 C13.48756095 110.4076292 20.22582054 114.11291027 30 119 C30 104.81 30 90.62 30 76 C40.56 76 51.12 76 62 76 C62 79.63 62 83.26 62 87 C56.06 87 50.12 87 44 87 C44 90.3 44 93.6 44 97 C49.94 97 55.88 97 62 97 C62 100.96 62 104.92 62 109 C56.06 109 50.12 109 44 109 C44 113.29 44 117.58 44 122 C55.80258679 119.58855778 66.95821921 116.6367307 75.5 107.5 C76.325 106.675 77.15 105.85 78 105 C81.84273477 105.1826093 83.69890388 107.38384908 86.25 110.0625 C86.95640625 110.79597656 87.6628125 111.52945313 88.390625 112.28515625 C88.92171875 112.85105469 89.4528125 113.41695313 90 114 C85.25053752 124.30543746 74.36134201 129.86820099 64.328125 134.13671875 C57.69632161 136.35815616 50.94922858 136.63036018 44 137 C44 141.29 44 145.58 44 150 C39.38 150 34.76 150 30 150 C30 145.05 30 140.1 30 135 C28.02 134.67 26.04 134.34 24 134 C8.90812833 128.15529175 -3.05288976 117.2874615 -10.3125 102.875 C-16.74637809 87.91535449 -17.88602602 72.16022482 -12.15234375 56.734375 C-7.5751773 45.87330206 -0.38925797 37.21202013 8 29 C5.03 26.03 2.06 23.06 -1 20 C-14.41686814 26.70843407 -22.15253128 42.05074525 -26.9375 55.66796875 C-32.76024915 74.17199368 -31.09995217 93.1377005 -22.625 110.5 C-19.92307197 115.64708537 -17.05457153 119.84653648 -13 124 C-14.36370299 126.99220268 -15.94908083 129.29026529 -18.125 131.75 C-18.66382812 132.36359375 -19.20265625 132.9771875 -19.7578125 133.609375 C-20.16773437 134.06828125 -20.57765625 134.5271875 -21 135 C-23.68453456 134.64323179 -24.80042337 134.21353304 -26.67578125 132.20703125 C-40.8711924 111.4390431 -47.98985236 88.03157494 -43.64794922 62.96777344 C-38.56492878 37.1882749 -24.42161858 16.7438918 -3 2 C-2.01 1.34 -1.02 0.68 0 0 Z M34 33 C35.44424635 36.23861303 37.25772247 38.61969163 39.625 41.25 C40.25664063 41.95640625 40.88828125 42.6628125 41.5390625 43.390625 C42.02117187 43.92171875 42.50328125 44.4528125 43 45 C46.45201639 43.52278578 48.64961936 41.56205999 51.25 38.875 C52.30960938 37.78832031 52.30960938 37.78832031 53.390625 36.6796875 C53.92171875 36.12539062 54.4528125 35.57109375 55 35 C52.29469221 32.29469221 50.52586342 32.57543113 46.75 32.3125 C45.07164063 32.18294922 45.07164063 32.18294922 43.359375 32.05078125 C40.09372851 32.00141683 37.19470049 32.35621945 34 33 Z " fill="#0F2145" transform="translate(61,115)"/>
<path d="M0 0 C1.57484319 1.33979197 3.13740142 2.69415502 4.6875 4.0625 C5.52925781 4.77277344 6.37101563 5.48304687 7.23828125 6.21484375 C25.74588249 22.1948515 37.66721803 45.00139369 41.6875 69.0625 C42.70544953 86.93975536 43.26604092 105.16315884 36.6875 122.0625 C36.42517578 122.76455566 36.16285156 123.46661133 35.89257812 124.18994141 C25.03537343 152.74543122 3.41020447 173.41602322 -24.125 185.8125 C-26.17437661 186.59765078 -28.2379988 187.34636384 -30.3125 188.0625 C-31.42367187 188.45566406 -32.53484375 188.84882813 -33.6796875 189.25390625 C-59.47365263 196.82330092 -89.72647567 193.46695684 -113.3125 181.0625 C-139.50158287 166.60452058 -157.65938631 143.94387877 -166.43237305 115.42163086 C-168.91084685 106.23431825 -169.94661279 97.71644508 -169.83398438 88.20800781 C-169.81249503 86.06200326 -169.83395652 83.91934353 -169.859375 81.7734375 C-169.91566874 53.35542741 -156.59882934 27.37481011 -136.79541016 7.49267578 C-122.80965321 -5.99572794 -105.09299621 -14.55346979 -86.3125 -18.9375 C-85.32636719 -19.18113281 -84.34023437 -19.42476563 -83.32421875 -19.67578125 C-55.07320699 -25.54975399 -22.64570037 -17.81840374 0 0 Z M-123.3125 15.0625 C-124.41851562 15.95195313 -124.41851562 15.95195313 -125.546875 16.859375 C-142.8540189 31.30188819 -153.28890508 53.44254955 -155.99609375 75.5390625 C-158.13303256 99.33559097 -152.21237235 123.57035856 -137.1875 142.5 C-135.90568021 144.02914186 -134.61356203 145.54969651 -133.3125 147.0625 C-132.15234375 148.52236328 -132.15234375 148.52236328 -130.96875 150.01171875 C-116.8273591 166.95399661 -93.95579573 176.24465135 -72.54296875 178.78515625 C-49.46674455 180.7663073 -26.05917545 174.35292486 -7.8125 159.9375 C-6.3069361 158.65232292 -4.80629742 157.36133489 -3.3125 156.0625 C-2.714375 155.60746094 -2.11625 155.15242187 -1.5 154.68359375 C15.84335652 141.23446311 25.70266979 117.44061654 28.40625 96.25390625 C29.86955437 79.6494664 27.75521078 63.23402575 20.6875 48.0625 C20.4184082 47.47404297 20.14931641 46.88558594 19.87207031 46.27929688 C9.15428166 23.24513414 -9.86021221 7.38470223 -33.30078125 -1.91015625 C-64.36000402 -12.50493652 -98.25523752 -6.28257545 -123.3125 15.0625 Z " fill="#0F2145" transform="translate(169.3125,107.9375)"/>
<path d="M0 0 C1.65 0 3.3 0 5 0 C5 0.66 5 1.32 5 2 C6.32 2.33 7.64 2.66 9 3 C8.67 4.65 8.34 6.3 8 8 C7.34 8 6.68 8 6 8 C5.67 8.66 5.34 9.32 5 10 C6.04800781 10.19335938 7.09601563 10.38671875 8.17578125 10.5859375 C9.55475593 10.84859934 10.93365849 11.11164 12.3125 11.375 C13.00279297 11.50132813 13.69308594 11.62765625 14.40429688 11.7578125 C17.83703314 12.42114318 20.05246458 13.03497639 23 15 C24.65549531 15.38499891 26.3222433 15.72793135 28 16 C28.495 17.98 28.495 17.98 29 20 C29.78375 19.95875 30.5675 19.9175 31.375 19.875 C34 20 34 20 36 22 C36 23.32 36 24.64 36 26 C36.60328125 25.89300781 37.2065625 25.78601563 37.828125 25.67578125 C44.47445255 24.67883212 44.47445255 24.67883212 47.25 26.375 C47.8275 26.91125 48.405 27.4475 49 28 C49.86625 28.144375 50.7325 28.28875 51.625 28.4375 C52.40875 28.623125 53.1925 28.80875 54 29 C54.66666667 30.33333333 55.33333333 31.66666667 56 33 C56.825 33.144375 57.65 33.28875 58.5 33.4375 C59.325 33.623125 60.15 33.80875 61 34 C61.71727778 35.64551962 62.38325228 37.31422289 63 39 C64.9837767 40.28436734 64.9837767 40.28436734 67 41 C68 42 68 42 68.0625 44.5625 C68.041875 45.366875 68.02125 46.17125 68 47 C68.66 47 69.32 47 70 47 C70.10957031 47.54527344 70.21914062 48.09054688 70.33203125 48.65234375 C71.19562884 52.75969814 72.19129529 56.67721594 73.625 60.625 C74.96783554 64.55758978 75.48317877 67.81245066 75 72 C73.84360194 74.31279611 72.82590172 76.17409828 71 78 C68.81707226 78.23481693 66.62796826 78.41363323 64.4375 78.5625 C63.23996094 78.64628906 62.04242188 78.73007813 60.80859375 78.81640625 C59.88175781 78.87699219 58.95492187 78.93757813 58 79 C58 79.99 58 80.98 58 82 C55.0901102 83.23166127 53.93733972 82.97835229 50.890625 81.92578125 C49.08851563 81.12720703 49.08851563 81.12720703 47.25 80.3125 C19.20922724 68.37988672 -12.31290021 68.9072044 -40.5 79.875 C-41.29591553 80.20959229 -42.09183105 80.54418457 -42.91186523 80.88891602 C-43.65251221 81.19112061 -44.39315918 81.4933252 -45.15625 81.8046875 C-45.80400391 82.08296387 -46.45175781 82.36124023 -47.11914062 82.64794922 C-49.64727249 83.12115355 -50.85359659 82.31083072 -53 81 C-53 80.34 -53 79.68 -53 79 C-53.90363281 78.96261719 -54.80726562 78.92523438 -55.73828125 78.88671875 C-56.91777344 78.82097656 -58.09726562 78.75523438 -59.3125 78.6875 C-60.48425781 78.62949219 -61.65601563 78.57148437 -62.86328125 78.51171875 C-66 78 -66 78 -67.89453125 76.7890625 C-72.01269555 70.12433017 -68.39305622 58.88943905 -66.8515625 51.8359375 C-66 49 -66 49 -64 47 C-62.96157435 44.68351201 -61.9578025 42.35096976 -61 40 C-59.68 40 -58.36 40 -57 40 C-57 38.35 -57 36.7 -57 35 C-55.63875 34.38125 -55.63875 34.38125 -54.25 33.75 C-50.99401359 32.19755167 -50.99401359 32.19755167 -48.875 29.875 C-46.85076577 27.85076577 -45.75681169 27.47531236 -43 27 C-42.67 26.67 -42.34 26.34 -42 26 C-40.14712498 25.92773498 -38.29166122 25.9161878 -36.4375 25.9375 C-35.42558594 25.94652344 -34.41367188 25.95554687 -33.37109375 25.96484375 C-32.58863281 25.97644531 -31.80617187 25.98804687 -31 26 C-30.67 24.35 -30.34 22.7 -30 21 C-28.02 20.67 -26.04 20.34 -24 20 C-23.67 18.68 -23.34 17.36 -23 16 C-21.2984375 15.5359375 -21.2984375 15.5359375 -19.5625 15.0625 C-16.21224901 14.37075469 -16.21224901 14.37075469 -15 13 C-13.04878907 12.62723135 -11.0885087 12.30135385 -9.125 12 C-5.93709107 11.50837067 -3.06282827 11.02094276 0 10 C-0.495 9.01 -0.495 9.01 -1 8 C-1.99 7.67 -2.98 7.34 -4 7 C-3.67 5.35 -3.34 3.7 -3 2 C-2.01 2 -1.02 2 0 2 C0 1.34 0 0.68 0 0 Z M8 24 C7.25073929 27.66305234 6.7619986 30.42355152 8 34 C9.093125 33.95875 10.18625 33.9175 11.3125 33.875 C17.64512715 33.86369174 23.99860917 34.99953639 30 37 C27.66007117 31.76624614 23.90595002 28.3159942 18.6796875 25.94921875 C14.87037084 24.62287252 12.08930218 24 8 24 Z M-25 35 C-24.67 35.66 -24.34 36.32 -24 37 C-23.195625 36.690625 -22.39125 36.38125 -21.5625 36.0625 C-15.46777005 34.24477352 -9.34807479 33.83722885 -3 34 C-3 31.03 -3 28.06 -3 25 C-12.85407499 24.2961375 -18.48034168 27.82837585 -25 35 Z M-29 46 C-28.87822312 47.91466367 -28.87822312 47.91466367 -28 50 C-26.7315625 50.6496875 -26.7315625 50.6496875 -25.4375 51.3125 C-24.633125 51.869375 -23.82875 52.42625 -23 53 C-22.45113486 57.39092112 -22.52333918 59.28500878 -25 63 C-23.35 63 -21.7 63 -20 63 C-19.86722656 62.36191406 -19.73445313 61.72382812 -19.59765625 61.06640625 C-19.42105469 60.24011719 -19.24445313 59.41382812 -19.0625 58.5625 C-18.88847656 57.73878906 -18.71445313 56.91507813 -18.53515625 56.06640625 C-18 54 -18 54 -17 53 C-15.33382885 52.95936168 -13.66611905 52.957279 -12 53 C-10.68 55.64 -9.36 58.28 -8 61 C-6.35 60.67 -4.7 60.34 -3 60 C-4.32 59.34 -5.64 58.68 -7 58 C-7.602537 51.01057082 -7.602537 51.01057082 -5.88671875 48.1328125 C-4.66254412 46.69138998 -3.33721771 45.33721771 -2 44 C-2.48705712 41.93597032 -2.48705712 41.93597032 -4 40 C-12.40777177 37.25833529 -22.31141063 40.61196967 -29 46 Z M8 40 C7.06245259 43.03033088 7.06245259 43.03033088 7.75 46.0625 C8.89876576 48.06210903 8.89876576 48.06210903 10.6875 49.375 C12 51 12 51 11.9375 54 C10.88710616 57.36126028 9.98886835 58.26452805 7 60 C8.06645115 61.29633621 8.06645115 61.29633621 10.5625 61.0625 C11.7690625 61.0315625 11.7690625 61.0315625 13 61 C13.391875 59.865625 13.78375 58.73125 14.1875 57.5625 C16 54 16 54 18.5625 53 C21 53 21 53 23 54 C23.19431765 56.04033535 23.38857488 58.08067656 23.58203125 60.12109375 C23.8328496 62.22621522 23.8328496 62.22621522 26.0625 63.5 C26.701875 63.665 27.34125 63.83 28 64 C28.66 63.34 29.32 62.68 30 62 C29.484375 61.484375 28.96875 60.96875 28.4375 60.4375 C26.42734299 57.0289729 27.20272604 54.76893143 28 51 C28.804375 50.731875 29.60875 50.46375 30.4375 50.1875 C31.283125 49.795625 32.12875 49.40375 33 49 C33.33 48.01 33.66 47.02 34 46 C25.17801802 40.57108801 18.30249325 39.17701977 8 40 Z M45 40 C44.78186325 42.9321163 44.78186325 42.9321163 46 45.0625 C48.99274474 47.96172146 51.94367431 48.20203429 56 49 C54.51697598 44.55092795 50.91714499 42.25420608 47 40 C46.34 40 45.68 40 45 40 Z M-41 40 C-42.48555383 40.92734572 -43.96327506 41.86724813 -45.4375 42.8125 C-46.26121094 43.33457031 -47.08492187 43.85664062 -47.93359375 44.39453125 C-50.27827786 45.90960713 -50.27827786 45.90960713 -51 49 C-44.65700785 47.49143691 -44.65700785 47.49143691 -39.9375 43.3125 C-39.628125 42.549375 -39.31875 41.78625 -39 41 C-39.66 40.67 -40.32 40.34 -41 40 Z M0 49 C-0.33 50.65 -0.66 52.3 -1 54 C0.98 54.99 0.98 54.99 3 56 C3.99 55.34 4.98 54.68 6 54 C5.67 52.35 5.34 50.7 5 49 C3.35 49 1.7 49 0 49 Z M-50 56 C-52.61067977 58.67762027 -54.87551976 61.14111247 -55 65 C-53.6483633 67.24755753 -53.6483633 67.24755753 -52 69 C-51.34 67.02 -50.68 65.04 -50 63 C-47.6875 62.3125 -47.6875 62.3125 -45 62 C-42.9820846 63.51343655 -42.12530066 64.74939867 -41 67 C-39.35 67 -37.7 67 -36 67 C-36 66.01 -36 65.02 -36 64 C-36.639375 63.87625 -37.27875 63.7525 -37.9375 63.625 C-38.618125 63.41875 -39.29875 63.2125 -40 63 C-41.38550197 60.22899606 -41.1877467 58.0665294 -41 55 C-40.34 54.01 -39.68 53.02 -39 52 C-43.31206066 52 -46.37975791 53.74464757 -50 56 Z M44 52 C44.66 52.99 45.32 53.98 46 55 C46.54404145 60.22279793 46.54404145 60.22279793 44.6875 62.875 C43 64 43 64 40 64 C40.33 64.99 40.66 65.98 41 67 C41.99 67.33 42.98 67.66 44 68 C44.6496875 67.3503125 44.6496875 67.3503125 45.3125 66.6875 C45.869375 66.130625 46.42625 65.57375 47 65 C47.45375 64.4225 47.9075 63.845 48.375 63.25 C50 62 50 62 52.6875 62.3125 C53.450625 62.539375 54.21375 62.76625 55 63 C55.66 64.98 56.32 66.96 57 69 C58.73647948 67.32511472 58.73647948 67.32511472 60 65 C59.0764613 60.49774882 56.40378232 57.93963019 53 55 C49.70559244 53.08924361 47.81633363 52 44 52 Z M-34 53 C-34.66 54.32 -35.32 55.64 -36 57 C-35.01 58.485 -35.01 58.485 -34 60 C-32.35 59.67 -30.7 59.34 -29 59 C-29 57.35 -29 55.7 -29 54 C-30.65 53.67 -32.3 53.34 -34 53 Z M35 53 C33.70366379 54.06645115 33.70366379 54.06645115 33.9375 56.5625 C33.958125 57.366875 33.97875 58.17125 34 59 C36.475 59.495 36.475 59.495 39 60 C39.66 58.68 40.32 57.36 41 56 C40.34 55.01 39.68 54.02 39 53 C37.68 53 36.36 53 35 53 Z M2 61 C1.67 61.99 1.34 62.98 1 64 C1.99 63.67 2.98 63.34 4 63 C3.34 62.34 2.68 61.68 2 61 Z M-14 63 C-14.33 63.66 -14.66 64.32 -15 65 C-14.01 64.67 -13.02 64.34 -12 64 C-12.66 63.67 -13.32 63.34 -14 63 Z M18 63 C17.67 63.66 17.34 64.32 17 65 C17.99 64.67 18.98 64.34 20 64 C19.34 63.67 18.68 63.34 18 63 Z M-30 66 C-30 66.66 -30 67.32 -30 68 C-29.01 67.67 -28.02 67.34 -27 67 C-27.99 66.67 -28.98 66.34 -30 66 Z M34 66 C33.67 66.66 33.34 67.32 33 68 C33.66 68 34.32 68 35 68 C34.67 67.34 34.34 66.68 34 66 Z M-64 67 C-64.33 68.65 -64.66 70.3 -65 72 C-62.525 72.99 -62.525 72.99 -60 74 C-59.34 73.34 -58.68 72.68 -58 72 C-58.32041397 69.39719432 -58.32041397 69.39719432 -59 67 C-60.65 67 -62.3 67 -64 67 Z M65 67 C64.34 68.65 63.68 70.3 63 72 C63.66 72.66 64.32 73.32 65 74 C67.60280568 73.67958603 67.60280568 73.67958603 70 73 C70 71.35 70 69.7 70 68 C68.35 67.67 66.7 67.34 65 67 Z M-52 69 C-52.33 70.32 -52.66 71.64 -53 73 C-52.34 72.67 -51.68 72.34 -51 72 C-51.33 71.01 -51.66 70.02 -52 69 Z M56 69 C57 72 57 72 57 72 Z M49 71 C48.67 71.66 48.34 72.32 48 73 C48.99 72.67 49.98 72.34 51 72 C50.34 71.67 49.68 71.34 49 71 Z " fill="#0F2145" transform="translate(103,0)"/>
<path d="M0 0 C2.40264138 0.93739417 3.59853892 2.00593114 5.375 3.8671875 C5.98214844 4.50011719 6.58929688 5.13304687 7.21484375 5.78515625 C9.57975273 8.37005676 11.86687916 11.01677947 14.15234375 13.671875 C17.62172673 17.54566458 21.34883589 21.16681245 25.0625 24.8046875 C29.19871084 21.4236837 32.87566569 18.13878216 36.0625 13.8046875 C39.19690333 14.38160003 40.82535719 15.19601138 43.05078125 17.46484375 C43.59283203 18.01205078 44.13488281 18.55925781 44.69335938 19.12304688 C45.24830078 19.69861328 45.80324219 20.27417969 46.375 20.8671875 C46.91833984 21.41568359 47.46167969 21.96417969 48.02148438 22.52929688 C50.92895011 25.49168522 53.71129601 28.52904987 56.41796875 31.67578125 C60.40930016 36.2810784 64.71898156 40.53404688 69.0625 44.8046875 C76.53136032 52.14823137 83.35705612 59.75815485 90.0625 67.8046875 C87.0925 72.0946875 84.1225 76.3846875 81.0625 80.8046875 C82.98390868 84.64750486 84.6551816 86.60900677 87.6875 89.5546875 C88.50476563 90.35390625 89.32203125 91.153125 90.1640625 91.9765625 C90.79054688 92.57984375 91.41703125 93.183125 92.0625 93.8046875 C87.06672587 104.82901599 74.47958261 111.10461443 64.5078125 116.93359375 C62.0625 117.8046875 62.0625 117.8046875 60.19384766 117.12451172 C55.6402923 114.30474995 52.07292796 110.14150182 48.3125 106.3671875 C47.42433594 105.49513672 46.53617187 104.62308594 45.62109375 103.72460938 C44.36232422 102.46680664 44.36232422 102.46680664 43.078125 101.18359375 C42.30758789 100.4160376 41.53705078 99.64848145 40.74316406 98.85766602 C39.0625 96.8046875 39.0625 96.8046875 39.0625 93.8046875 C40.02929688 93.45277344 40.99609375 93.10085937 41.9921875 92.73828125 C53.76961517 88.32420993 62.78026884 82.33500608 72.0625 73.8046875 C71.57311681 69.53007511 69.10507174 67.47917684 66.125 64.5546875 C65.22910156 63.66265625 64.33320313 62.770625 63.41015625 61.8515625 C61.33036519 59.58563025 61.33036519 59.58563025 59.0625 59.8046875 C57.9238056 60.9433819 56.78844749 62.08556429 55.66796875 63.2421875 C47.23246536 71.45192316 38.83163009 76.05744114 27.0625 76.8046875 C27.0625 73.8346875 27.0625 70.8646875 27.0625 67.8046875 C33.0025 67.8046875 38.9425 67.8046875 45.0625 67.8046875 C45.0625 62.5246875 45.0625 57.2446875 45.0625 51.8046875 C39.1225 51.8046875 33.1825 51.8046875 27.0625 51.8046875 C27.0625 49.8246875 27.0625 47.8446875 27.0625 45.8046875 C33.0025 45.8046875 38.9425 45.8046875 45.0625 45.8046875 C45.0625 40.8546875 45.0625 35.9046875 45.0625 30.8046875 C33.1825 30.8046875 21.3025 30.8046875 9.0625 30.8046875 C9.0625 41.6946875 9.0625 52.5846875 9.0625 63.8046875 C5.57175718 62.05931609 4.17213497 61.12614395 1.671875 58.390625 C1.04804932 57.71604248 0.42422363 57.04145996 -0.21850586 56.34643555 C-1.19315796 55.27389526 -1.19315796 55.27389526 -2.1875 54.1796875 C-6.26273099 49.71295822 -10.27608833 45.43057326 -14.875 41.4921875 C-17.76231376 38.61745463 -18.48526986 36.62818032 -18.6875 32.5546875 C-17.80933755 21.79347642 -13.66900673 13.11294355 -6.9375 4.8046875 C-6.46828125 4.22203125 -5.9990625 3.639375 -5.515625 3.0390625 C-2.57910533 -0.25999046 -2.57910533 -0.25999046 0 0 Z " fill="#0F2145" transform="translate(79.9375,158.1953125)"/>
<path d="M0 0 C-0.33 2.64 -0.66 5.28 -1 8 C-1.66 8 -2.32 8 -3 8 C-3.33 9.32 -3.66 10.64 -4 12 C-8.0475886 11.32036759 -11.66572814 10.07604325 -15.5 8.625 C-40.63806194 -0.48261197 -69.57923622 -1.00753299 -94.25 10.25 C-95.24773437 10.75273438 -95.24773437 10.75273438 -96.265625 11.265625 C-98 12 -98 12 -101 12 C-101.33 10.68 -101.66 9.36 -102 8 C-102.66 8 -103.32 8 -104 8 C-104.33 5.36 -104.66 2.72 -105 0 C-71.7627758 -14.32638974 -33.02614577 -16.51307288 0 0 Z " fill="#0F2145" transform="translate(158,84)"/>
<path d="M0 0 C2.93174678 1.64910756 4.88037231 3.52088598 7 6.125 C7.125 8.1875 7.125 8.1875 6 10.125 C5.24460937 10.7025 4.48921875 11.28 3.7109375 11.875 C-4.94910568 19.06258627 -9.59614247 29.67396005 -13 40.125 C-17.35117302 39.39347091 -19.23353077 37.37157937 -21.9140625 34.00390625 C-23 32.125 -23 32.125 -22.75 29.375 C-22.1725 28.3025 -21.595 27.23 -21 26.125 C-20.60039063 25.3103125 -20.20078125 24.495625 -19.7890625 23.65625 C-16.29884588 16.79151454 -12.03531584 10.9317721 -7 5.125 C-6.51144531 4.54105469 -6.02289063 3.95710937 -5.51953125 3.35546875 C-2.66441729 0.16652608 -2.66441729 0.16652608 0 0 Z " fill="#0F2145" transform="translate(59,136.875)"/>
</svg>
