<?xml version="1.0" standalone="no"?>
<!DOCTYPE svg PUBLIC "-//W3C//DTD SVG 20010904//EN"
 "http://www.w3.org/TR/2001/REC-SVG-20010904/DTD/svg10.dtd">
<svg version="1.0" xmlns="http://www.w3.org/2000/svg"
 width="675.000000pt" height="1200.000000pt" viewBox="0 0 675.000000 1200.000000"
 preserveAspectRatio="xMidYMid meet">

<g transform="translate(0.000000,1200.000000) scale(0.100000,-0.100000)"
fill="#000000" stroke="none">
<path d="M0 6000 l0 -6000 3375 0 3375 0 0 6000 0 6000 -3375 0 -3375 0 0
-6000z m3130 4277 c0 -7 -11 -12 -27 -11 -59 2 -66 7 -23 14 25 4 46 8 48 8 1
1 2 -4 2 -11z m1027 -103 c-3 -3 -12 -4 -19 -1 -8 3 -5 6 6 6 11 1 17 -2 13
-5z m-492 -24 c71 -9 147 -21 245 -38 30 -6 75 -17 100 -26 25 -8 64 -18 88
-22 23 -4 45 -11 48 -15 3 -5 16 -9 29 -9 13 0 26 -4 29 -9 4 -5 29 -15 56
-22 28 -7 50 -16 50 -21 0 -4 9 -8 20 -8 11 0 35 -9 55 -20 20 -11 42 -20 50
-20 8 0 15 -4 15 -10 0 -5 5 -10 12 -10 15 0 122 -53 126 -62 2 -5 12 -8 23
-8 10 0 19 -4 19 -10 0 -5 4 -10 10 -10 13 0 154 -90 158 -101 2 -5 11 -9 21
-9 9 0 23 -9 31 -20 8 -11 19 -20 26 -20 6 0 19 -9 29 -20 10 -11 23 -20 29
-20 6 0 22 -10 36 -22 14 -13 41 -35 60 -49 19 -15 45 -36 58 -47 12 -11 38
-30 57 -43 19 -13 38 -32 41 -41 3 -10 10 -18 15 -18 11 0 254 -244 296 -297
16 -20 38 -47 51 -62 12 -14 48 -60 80 -101 31 -41 59 -77 63 -80 3 -3 12 -16
19 -29 14 -27 16 -30 58 -81 16 -19 32 -45 36 -57 4 -13 12 -23 17 -23 5 0 9
-6 9 -13 0 -7 9 -23 20 -35 11 -12 20 -25 20 -31 0 -5 3 -11 8 -13 4 -1 20
-28 36 -58 17 -30 42 -75 58 -99 15 -25 28 -50 28 -57 0 -7 4 -14 8 -16 4 -1
25 -39 46 -83 21 -44 51 -107 67 -139 16 -32 29 -65 29 -72 0 -8 5 -14 10 -14
6 0 10 -7 10 -15 0 -9 9 -35 20 -57 11 -23 20 -46 20 -51 0 -4 11 -33 25 -63
14 -30 25 -63 25 -74 0 -11 5 -20 10 -20 6 0 10 -9 10 -20 0 -11 4 -28 9 -38
6 -9 21 -53 35 -97 29 -96 51 -168 52 -175 0 -3 3 -12 7 -20 7 -18 16 -62 24
-110 3 -19 9 -37 12 -40 4 -3 15 -43 25 -90 28 -138 34 -167 76 -408 22 -128
52 -558 53 -762 0 -194 -31 -652 -53 -776 -17 -93 -18 -105 -26 -174 -3 -36
-10 -69 -14 -75 -4 -5 -10 -28 -13 -50 -3 -22 -10 -60 -16 -85 -6 -25 -14 -61
-17 -80 -3 -19 -9 -44 -13 -55 -5 -11 -18 -63 -31 -115 -12 -52 -26 -97 -29
-100 -4 -3 -12 -25 -18 -50 -21 -86 -47 -165 -55 -168 -4 -2 -8 -12 -8 -23 0
-11 -4 -27 -10 -37 -5 -9 -19 -46 -31 -82 -12 -36 -32 -89 -45 -118 -13 -29
-24 -59 -24 -67 0 -8 -4 -15 -10 -15 -5 0 -10 -9 -10 -20 0 -11 -4 -20 -8 -20
-4 0 -13 -20 -20 -45 -7 -25 -16 -45 -22 -45 -5 0 -10 -6 -10 -14 0 -7 -16
-44 -36 -82 -21 -38 -51 -95 -67 -126 -17 -32 -34 -58 -39 -58 -4 0 -8 -7 -8
-15 0 -9 -11 -33 -25 -55 -14 -22 -25 -42 -25 -45 0 -3 -9 -15 -20 -27 -11
-12 -20 -28 -20 -35 0 -7 -4 -13 -10 -13 -5 0 -10 -5 -10 -10 0 -13 -49 -88
-72 -112 -10 -10 -18 -23 -18 -29 0 -6 -6 -16 -12 -24 -22 -23 -43 -49 -75
-95 -29 -42 -39 -55 -96 -120 -12 -14 -33 -41 -47 -60 -29 -41 -29 -40 -142
-157 -108 -111 -219 -215 -267 -251 -20 -15 -38 -29 -41 -32 -3 -3 -27 -23
-55 -45 -27 -22 -56 -45 -63 -52 -6 -6 -21 -15 -32 -18 -11 -3 -20 -11 -20
-16 0 -5 -7 -9 -15 -9 -8 0 -15 -4 -15 -9 0 -5 -9 -13 -20 -16 -11 -3 -26 -12
-32 -19 -7 -6 -33 -23 -58 -37 -73 -41 -95 -54 -100 -59 -3 -3 -21 -13 -40
-22 -19 -9 -46 -24 -60 -31 -40 -24 -138 -67 -149 -67 -6 0 -11 -4 -11 -10 0
-5 -6 -10 -14 -10 -13 0 -106 -34 -138 -51 -9 -5 -35 -12 -58 -15 -22 -4 -40
-10 -40 -15 0 -5 -8 -9 -17 -9 -10 0 -37 -7 -60 -15 -23 -8 -62 -17 -85 -21
-24 -3 -52 -9 -63 -14 -11 -4 -54 -13 -95 -20 -41 -6 -97 -15 -125 -20 -137
-24 -519 -19 -695 9 -30 5 -75 12 -100 16 -25 4 -54 10 -65 15 -11 5 -36 11
-55 14 -37 6 -132 33 -165 46 -11 4 -56 20 -100 34 -92 31 -94 32 -198 80 -43
20 -85 36 -93 36 -7 0 -14 5 -14 10 0 6 -5 10 -11 10 -6 0 -22 9 -36 20 -14
11 -34 20 -44 20 -11 0 -19 5 -19 10 0 6 -5 10 -10 10 -6 0 -48 25 -94 55 -46
30 -88 55 -95 55 -6 0 -11 5 -11 10 0 6 -7 10 -15 10 -8 0 -15 4 -15 8 0 4
-12 15 -27 24 -16 9 -42 30 -60 46 -17 17 -47 40 -65 53 -18 13 -47 37 -63 54
-17 16 -43 39 -59 50 -37 27 -262 250 -306 304 -19 24 -46 56 -60 71 -14 16
-35 41 -47 57 -12 15 -31 38 -43 51 -11 12 -18 22 -15 22 6 0 -7 17 -42 55
-13 13 -23 28 -23 33 0 5 -11 21 -25 36 -14 15 -25 32 -25 38 0 6 -8 18 -18
27 -9 9 -23 28 -31 43 -8 16 -18 28 -23 28 -4 0 -8 4 -8 9 0 9 -60 105 -80
128 -5 7 -10 16 -10 21 0 14 -25 62 -32 62 -5 0 -8 6 -8 14 0 8 -4 16 -8 18
-16 6 -192 376 -192 402 0 9 -3 16 -7 16 -11 0 -33 50 -33 71 0 10 -4 21 -10
24 -5 3 -10 15 -10 26 0 10 -4 19 -10 19 -5 0 -10 9 -10 20 0 11 -9 39 -19 63
-11 23 -27 67 -36 97 -9 30 -20 64 -25 75 -4 11 -13 40 -20 65 -6 25 -16 53
-21 62 -5 10 -9 29 -9 43 0 14 -4 25 -10 25 -5 0 -10 9 -10 20 0 10 -7 45 -16
77 -9 32 -22 87 -28 123 -7 36 -15 72 -18 80 -4 8 -9 31 -12 50 -3 19 -10 60
-16 90 -6 30 -13 78 -16 105 -3 28 -9 59 -14 70 -5 11 -11 47 -14 80 -3 33
-12 121 -20 195 -31 283 -29 825 4 1100 5 41 11 109 15 150 4 41 10 84 15 95
5 11 11 45 14 75 13 115 16 134 26 144 5 5 10 27 10 48 0 21 4 46 9 56 5 9 14
49 19 87 10 71 37 193 52 230 4 11 17 44 29 74 12 29 21 60 21 67 0 8 4 22 9
32 5 9 17 44 27 77 21 69 58 162 68 172 3 3 6 13 6 20 0 8 9 33 20 55 11 23
20 48 20 55 0 7 5 13 10 13 6 0 10 9 10 20 0 25 19 68 122 278 44 89 84 162
89 162 5 0 9 9 9 20 0 11 4 20 9 20 5 0 11 8 14 18 8 23 40 76 50 80 4 2 7 8
7 13 0 6 5 15 10 22 21 25 60 88 60 97 0 6 3 10 8 10 4 0 18 18 32 40 14 22
28 40 32 40 4 0 9 8 12 18 4 10 14 27 24 38 10 10 28 35 42 54 13 19 31 42 40
50 8 8 33 38 55 65 53 66 102 122 201 228 39 42 192 179 266 239 18 15 44 37
58 49 14 12 52 40 85 62 33 22 62 44 63 49 2 4 10 8 18 8 8 0 14 5 14 10 0 6
5 10 11 10 6 0 25 10 42 23 48 34 138 87 148 87 5 0 9 5 9 10 0 6 9 10 19 10
11 0 21 3 23 8 3 7 64 38 133 67 22 9 56 26 76 36 20 10 44 19 53 19 9 0 16 5
16 10 0 6 8 10 19 10 10 0 52 13 92 29 41 16 94 33 119 36 25 4 50 11 55 15 6
4 35 13 65 19 30 7 74 16 98 22 23 5 60 9 82 9 21 0 42 5 45 10 3 6 32 10 63
11 31 0 77 4 102 9 54 10 387 4 485 -10z m-1218 -46 c-3 -3 -12 -4 -19 -1 -8
3 -5 6 6 6 11 1 17 -2 13 -5z m-2170 -2596 c-3 -8 -6 -5 -6 6 -1 11 2 17 5 13
3 -3 4 -12 1 -19z"/>
<path d="M3145 10059 c-77 -11 -145 -25 -275 -56 -114 -26 -147 -37 -230 -71
-14 -5 -54 -22 -90 -36 -107 -44 -120 -51 -120 -58 0 -5 -6 -8 -13 -8 -18 0
-67 -24 -67 -32 0 -5 -5 -8 -11 -8 -13 0 -233 -132 -237 -142 -2 -5 -8 -8 -14
-8 -11 0 -172 -103 -194 -124 -7 -6 -25 -20 -40 -31 -16 -11 -39 -30 -52 -42
-13 -13 -25 -23 -27 -23 -8 0 -43 -31 -120 -105 -40 -38 -84 -79 -97 -91 -44
-39 -221 -235 -253 -280 -11 -15 -30 -38 -43 -50 -12 -13 -22 -26 -22 -30 0
-3 -11 -20 -25 -38 -14 -17 -29 -35 -33 -41 -4 -5 -38 -55 -75 -110 -37 -55
-72 -105 -77 -112 -6 -7 -10 -15 -10 -18 0 -4 -13 -25 -28 -48 -15 -23 -41
-69 -57 -102 -17 -33 -32 -62 -35 -65 -3 -3 -17 -27 -30 -55 -14 -27 -28 -51
-32 -53 -5 -2 -8 -9 -8 -15 0 -6 -15 -43 -34 -82 -54 -112 -76 -164 -76 -180
0 -8 -4 -15 -10 -15 -5 0 -10 -7 -10 -15 0 -8 -9 -34 -19 -58 -26 -57 -82
-215 -88 -250 -3 -15 -9 -30 -14 -33 -5 -3 -9 -14 -9 -25 0 -10 -4 -27 -9 -37
-13 -26 -31 -86 -31 -105 0 -10 -4 -25 -9 -35 -5 -9 -17 -48 -26 -87 -46 -193
-55 -232 -55 -262 0 -17 -4 -34 -9 -37 -5 -3 -11 -29 -15 -58 -3 -29 -11 -82
-16 -118 -40 -252 -55 -471 -55 -815 0 -165 7 -367 14 -450 7 -82 15 -175 17
-205 3 -30 9 -64 14 -75 5 -11 11 -45 14 -75 3 -30 10 -77 15 -105 6 -27 15
-78 21 -113 18 -110 110 -466 140 -537 4 -11 14 -40 21 -65 7 -25 16 -49 20
-55 4 -5 10 -26 14 -45 4 -19 11 -41 15 -50 28 -57 50 -113 50 -125 0 -8 5
-15 10 -15 6 0 10 -8 10 -17 0 -10 11 -40 25 -68 13 -27 25 -57 25 -67 0 -9 4
-18 8 -20 9 -3 52 -93 52 -108 0 -5 4 -10 8 -10 4 0 14 -17 21 -37 8 -21 17
-40 20 -43 3 -3 17 -25 30 -50 52 -98 74 -136 92 -161 10 -15 19 -32 19 -38 0
-6 3 -11 8 -11 4 0 13 -14 20 -30 8 -17 19 -36 26 -43 7 -6 39 -52 72 -102 62
-95 77 -114 109 -149 11 -12 39 -46 62 -76 65 -87 244 -274 355 -373 29 -26
76 -67 103 -92 28 -25 53 -45 57 -45 4 0 13 -6 20 -13 22 -22 208 -147 218
-147 6 0 10 -3 10 -7 0 -5 10 -13 23 -19 12 -6 64 -36 115 -68 51 -31 97 -56
102 -56 4 0 10 -3 12 -8 3 -8 200 -106 238 -118 14 -4 28 -7 33 -6 4 1 7 -2 7
-8 0 -5 7 -10 15 -10 8 0 24 -5 35 -10 11 -5 29 -14 40 -20 11 -5 31 -10 45
-10 14 0 25 -4 25 -10 0 -5 10 -10 23 -10 12 0 45 -7 72 -16 108 -33 257 -48
514 -51 166 -3 258 0 265 7 5 5 27 10 48 10 20 0 59 4 85 10 26 5 59 12 73 14
14 2 38 9 53 15 16 6 39 11 53 11 13 0 24 5 24 10 0 6 9 10 20 10 10 0 32 5
47 11 15 6 39 16 53 21 14 6 33 14 42 19 10 5 23 9 30 9 7 0 45 16 83 35 39
19 76 35 83 35 6 0 12 5 12 10 0 6 9 10 20 10 11 0 20 3 20 8 0 4 15 13 33 21
17 8 34 17 37 20 8 9 83 52 103 58 9 3 17 9 17 14 0 5 6 9 14 9 8 0 16 4 18 8
2 4 26 21 53 36 28 16 66 42 86 58 20 15 42 28 48 28 6 0 11 5 11 10 0 6 7 10
15 10 8 0 15 5 15 10 0 6 5 10 10 10 6 0 21 9 33 20 46 43 82 70 94 70 6 0 15
9 18 20 3 11 10 20 14 20 19 0 257 230 358 347 85 99 103 121 103 127 0 4 10
17 23 30 12 12 30 33 40 47 9 13 42 58 72 99 30 41 55 81 55 88 0 6 5 12 10
12 6 0 10 5 10 10 0 6 9 20 20 32 11 12 20 28 20 35 0 7 4 13 9 13 5 0 13 10
17 23 4 12 19 40 33 62 15 22 38 63 51 90 14 28 27 52 30 55 11 10 80 156 80
168 0 6 5 12 10 12 6 0 10 9 10 20 0 11 5 20 10 20 6 0 10 9 10 20 0 11 5 20
10 20 6 0 10 9 10 20 0 11 5 20 10 20 6 0 10 9 10 19 0 16 50 141 79 201 5 8
14 39 21 68 8 28 17 52 22 52 4 0 8 9 8 20 0 11 4 28 9 38 15 28 61 195 61
220 0 12 3 22 8 22 8 0 32 92 32 123 0 9 5 17 10 17 6 0 10 18 10 40 0 22 4
48 9 58 10 20 49 220 63 325 5 40 13 99 18 132 49 332 49 1054 0 1370 -5 33
-14 94 -19 135 -11 81 -47 266 -62 316 -5 17 -9 42 -9 57 0 14 -4 28 -9 31 -5
3 -11 20 -14 38 -14 77 -20 104 -27 113 -4 6 -11 31 -14 57 -4 26 -11 50 -15
52 -4 3 -14 31 -21 63 -7 32 -17 62 -22 68 -4 5 -8 19 -8 32 0 13 -4 23 -10
23 -5 0 -10 9 -10 20 0 11 -4 29 -10 40 -5 11 -14 29 -20 40 -5 11 -10 25 -10
31 0 7 -16 51 -36 98 -20 47 -44 104 -53 126 -14 33 -56 120 -153 310 -11 22
-24 42 -29 43 -5 2 -9 10 -9 17 0 8 -25 53 -55 100 -30 46 -55 89 -55 95 0 5
-4 10 -10 10 -5 0 -10 6 -10 13 0 7 -8 22 -17 33 -10 11 -36 46 -58 79 -22 33
-48 67 -57 76 -10 9 -18 21 -18 26 0 5 -8 18 -18 29 -10 10 -31 37 -47 59 -16
22 -42 52 -57 68 -16 15 -28 30 -28 32 0 14 -298 315 -349 353 -20 15 -50 41
-67 57 -18 17 -61 50 -98 75 -36 25 -65 48 -66 53 0 4 -7 7 -15 7 -8 0 -15 4
-15 9 0 5 -8 11 -17 14 -25 8 -94 49 -117 70 -11 9 -26 17 -33 17 -7 0 -13 5
-13 10 0 6 -7 10 -15 10 -8 0 -15 3 -15 8 0 4 -10 12 -23 17 -38 19 -132 70
-137 76 -3 3 -20 12 -37 20 -18 8 -33 17 -33 21 0 5 -9 8 -19 8 -11 0 -21 3
-23 8 -3 6 -42 22 -135 55 -18 7 -33 15 -33 19 0 5 -11 8 -25 8 -14 0 -25 4
-25 8 0 5 -24 14 -52 21 -29 7 -62 16 -73 20 -32 13 -221 52 -325 67 -105 15
-381 17 -475 3z m-1085 -1409 c124 -24 216 -63 262 -114 10 -10 18 -16 18 -12
0 4 15 -10 33 -31 17 -21 43 -49 57 -64 14 -15 35 -44 46 -65 12 -22 30 -55
41 -74 31 -55 62 -199 58 -278 -4 -110 -35 -191 -110 -290 -28 -36 -69 -71
-108 -91 -15 -8 -27 -18 -27 -23 0 -4 -7 -8 -16 -8 -9 0 -28 -8 -42 -19 -15
-10 -42 -22 -59 -26 -18 -3 -33 -10 -33 -14 0 -5 -19 -16 -42 -26 -88 -37
-153 -70 -156 -77 -2 -4 -9 -8 -16 -8 -14 0 -75 -63 -94 -97 -14 -27 -16 -143
-2 -143 6 0 10 -7 10 -17 0 -17 75 -122 97 -136 7 -4 13 -15 13 -22 0 -8 5
-15 10 -15 6 0 10 -11 10 -24 0 -14 5 -28 10 -31 6 -3 10 -24 10 -46 0 -21 -4
-39 -10 -39 -5 0 -10 -11 -10 -25 0 -14 -4 -25 -10 -25 -5 0 -10 -9 -10 -21 0
-34 -31 -18 -45 24 -13 38 -63 119 -77 125 -5 2 -8 10 -8 18 0 8 -4 14 -10 14
-5 0 -10 7 -10 15 0 8 -4 15 -10 15 -5 0 -10 7 -10 15 0 8 -4 15 -10 15 -5 0
-10 5 -10 11 0 5 -10 31 -22 57 -20 40 -23 63 -23 162 0 99 3 124 25 178 13
34 28 62 32 62 5 0 8 7 8 15 0 8 4 15 8 15 4 0 15 12 24 28 39 65 237 232 276
232 7 0 12 5 12 10 0 6 7 10 15 10 8 0 15 3 15 8 0 4 15 14 33 22 60 26 140
103 163 158 21 49 20 127 -3 171 -40 78 -171 182 -264 210 -24 7 -52 17 -61
22 -23 12 -183 12 -206 0 -26 -13 -86 -31 -105 -31 -9 0 -17 -4 -17 -9 0 -5
-13 -14 -28 -20 -15 -6 -41 -23 -57 -37 -72 -60 -115 -100 -115 -106 0 -8 -22
-36 -47 -63 -7 -8 -13 -16 -13 -20 0 -4 -13 -25 -28 -48 -40 -60 -102 -191
-102 -215 0 -12 -4 -23 -8 -26 -5 -3 -15 -31 -22 -63 -7 -32 -17 -62 -20 -68
-4 -5 -11 -28 -14 -50 -23 -143 -29 -225 -28 -425 0 -249 12 -393 52 -655 16
-103 28 -190 39 -275 5 -41 15 -97 21 -125 18 -81 31 -145 45 -225 7 -41 20
-106 29 -145 9 -38 16 -82 16 -97 0 -15 5 -30 10 -33 6 -3 10 -24 10 -45 0
-21 3 -40 8 -42 7 -3 33 -111 52 -218 6 -30 14 -64 19 -75 5 -11 12 -31 15
-45 2 -14 10 -43 16 -65 6 -22 14 -51 16 -65 3 -14 9 -34 14 -45 9 -21 18 -59
27 -113 3 -18 9 -35 14 -38 5 -3 9 -16 9 -30 0 -13 4 -24 8 -24 4 0 13 -24 19
-52 6 -29 20 -82 30 -118 19 -61 23 -75 43 -125 4 -11 13 -38 19 -60 7 -22 16
-49 20 -60 5 -11 17 -49 29 -85 26 -86 53 -161 63 -182 5 -10 9 -23 9 -28 0
-6 9 -30 20 -52 11 -23 20 -50 20 -60 0 -10 4 -18 8 -18 4 0 13 -17 19 -37 20
-67 48 -138 56 -141 4 -2 7 -10 7 -18 0 -8 5 -23 10 -34 6 -11 15 -29 20 -40
6 -11 10 -27 10 -35 0 -8 5 -15 10 -15 6 0 10 -9 10 -20 0 -12 11 -42 25 -68
14 -26 25 -54 25 -64 0 -9 4 -19 9 -22 5 -3 19 -32 31 -63 12 -32 27 -68 32
-80 8 -17 7 -25 -5 -37 -14 -15 -18 -13 -40 16 -13 18 -30 48 -38 66 -8 17
-17 32 -21 32 -5 0 -8 6 -8 14 0 8 -11 37 -25 64 -14 28 -25 55 -25 61 0 6 -4
11 -10 11 -5 0 -10 9 -10 20 0 11 -4 20 -10 20 -5 0 -10 11 -10 25 0 14 -4 25
-10 25 -5 0 -10 9 -10 20 0 11 -4 20 -10 20 -5 0 -10 7 -10 16 0 9 -16 50 -35
91 -19 41 -35 81 -35 89 0 8 -4 14 -10 14 -5 0 -10 7 -10 15 0 15 -40 106 -51
115 -3 3 -9 18 -13 34 -6 26 -22 64 -66 161 -10 22 -25 58 -32 80 -7 22 -15
42 -18 45 -3 3 -12 25 -21 50 -50 138 -65 175 -71 178 -5 2 -8 12 -8 23 0 11
-4 27 -9 37 -5 9 -14 29 -20 45 -6 15 -15 37 -20 50 -5 12 -12 31 -14 42 -9
33 -47 139 -57 157 -6 10 -10 27 -10 37 0 11 -4 23 -10 26 -5 3 -10 17 -10 30
0 13 -4 27 -10 30 -5 3 -10 19 -10 36 0 16 -4 29 -10 29 -5 0 -10 9 -10 19 0
11 -13 57 -29 103 -16 46 -32 99 -36 118 -4 19 -11 40 -15 45 -7 9 -13 36 -27
113 -3 17 -9 32 -14 32 -5 0 -9 16 -9 35 0 19 -4 35 -10 35 -5 0 -10 10 -10
23 0 12 -7 47 -15 77 -9 30 -23 87 -31 125 -27 124 -33 149 -44 195 -6 25 -13
63 -16 85 -3 22 -9 49 -14 60 -4 11 -13 67 -20 125 -6 58 -16 115 -21 128 -5
13 -9 45 -9 72 0 27 -4 60 -9 73 -5 14 -15 132 -21 264 -12 243 -1 611 20 706
5 23 14 67 20 97 25 120 33 156 40 175 5 11 11 34 15 50 4 17 13 46 22 65 8
19 21 50 29 68 8 18 14 38 14 45 0 7 9 23 20 37 11 14 20 33 20 43 0 9 5 17
10 17 6 0 10 5 10 10 0 6 9 20 20 32 11 12 20 28 20 35 0 7 4 13 9 13 5 0 13
10 17 22 3 12 18 35 33 51 60 66 131 137 136 137 3 0 15 8 25 18 20 18 75 50
140 82 33 16 136 45 190 53 46 8 165 6 210 -3z m2904 -9 c6 -5 29 -12 51 -16
22 -3 80 -28 129 -53 97 -51 209 -151 261 -232 16 -25 34 -49 39 -55 12 -11
48 -73 74 -125 9 -19 20 -36 25 -38 4 -2 7 -15 7 -28 0 -13 5 -24 10 -24 6 0
10 -6 10 -13 0 -8 7 -28 16 -46 18 -36 38 -103 61 -201 8 -36 19 -79 24 -96 5
-17 9 -47 9 -67 0 -20 4 -38 9 -41 35 -22 35 -960 -1 -982 -4 -3 -8 -34 -8
-69 0 -35 -4 -67 -10 -70 -5 -3 -10 -25 -10 -48 0 -23 -7 -80 -16 -127 -37
-204 -43 -237 -53 -275 -5 -22 -11 -42 -12 -45 -1 -3 -3 -9 -4 -15 -2 -5 -8
-29 -14 -51 -6 -23 -11 -55 -11 -72 0 -17 -4 -33 -9 -36 -5 -3 -12 -22 -15
-41 -3 -19 -9 -51 -12 -70 -3 -19 -10 -38 -15 -41 -5 -3 -9 -18 -9 -34 0 -16
-4 -31 -9 -34 -4 -3 -11 -25 -15 -48 -4 -24 -15 -68 -25 -98 -10 -30 -24 -75
-31 -100 -7 -25 -16 -54 -20 -65 -5 -11 -14 -38 -21 -60 -6 -22 -14 -47 -17
-55 -3 -8 -11 -33 -17 -55 -12 -40 -61 -182 -75 -220 -5 -11 -13 -36 -20 -55
-7 -19 -16 -44 -20 -55 -5 -11 -11 -29 -16 -40 -4 -11 -18 -49 -31 -85 -13
-36 -27 -77 -30 -92 -3 -16 -9 -28 -14 -28 -5 0 -9 -9 -9 -20 0 -11 -4 -20
-10 -20 -5 0 -10 -9 -10 -20 0 -11 -4 -28 -9 -38 -5 -9 -13 -28 -18 -42 -6
-14 -25 -61 -43 -105 -18 -44 -39 -96 -47 -115 -8 -19 -19 -43 -24 -52 -5 -10
-9 -25 -9 -33 0 -8 -4 -15 -10 -15 -5 0 -10 -8 -10 -18 0 -10 -4 -22 -8 -27
-5 -6 -16 -29 -25 -52 -22 -55 -66 -155 -131 -295 -20 -43 -36 -85 -36 -93 0
-8 -3 -15 -8 -15 -4 0 -13 -15 -21 -32 -25 -60 -72 -153 -94 -185 -43 -64 -65
-29 -34 52 36 93 42 105 49 105 5 0 8 9 8 19 0 11 5 23 10 26 6 3 10 17 10 31
0 13 5 24 10 24 6 0 10 5 10 12 0 6 8 30 19 52 33 73 48 110 62 151 7 22 17
44 21 50 4 5 8 17 8 27 0 10 4 18 9 18 5 0 12 17 16 38 3 20 12 46 19 57 6 11
21 47 31 80 11 33 22 65 26 70 3 6 12 28 18 50 13 41 27 77 42 107 5 10 9 27
9 37 0 11 5 23 10 26 6 3 10 17 10 30 0 13 4 26 9 29 5 4 12 25 16 48 4 23 11
49 16 58 16 29 49 136 49 158 0 12 5 22 10 22 6 0 10 13 10 29 0 17 5 33 10
36 6 3 10 17 10 30 0 13 5 27 10 30 6 3 10 17 10 31 0 13 4 32 9 42 10 21 52
185 59 230 2 17 8 32 13 32 5 0 9 16 9 35 0 19 5 35 10 35 6 0 10 11 10 25 0
27 18 108 31 140 4 11 10 36 12 55 2 19 16 81 31 138 14 56 30 128 35 160 5
31 16 88 25 127 9 38 16 81 16 95 0 15 4 30 9 36 5 5 11 27 14 49 3 22 15 101
27 175 12 74 27 180 34 235 7 55 15 107 19 115 3 8 8 42 11 75 3 33 11 112 18
175 22 207 13 750 -13 750 -5 0 -9 18 -9 40 0 22 -4 40 -10 40 -5 0 -10 13
-10 28 0 15 -14 66 -31 112 -16 47 -33 93 -36 103 -3 9 -9 17 -14 17 -5 0 -9
8 -9 18 0 9 -9 28 -20 42 -11 14 -20 30 -20 36 0 6 -16 32 -35 57 -19 25 -35
49 -35 52 0 11 -132 134 -162 153 -16 9 -28 20 -28 24 0 4 -9 8 -19 8 -11 0
-21 4 -23 8 -7 17 -118 45 -199 49 -66 4 -100 1 -140 -12 -71 -23 -159 -65
-159 -76 0 -5 -6 -9 -14 -9 -20 0 -112 -94 -128 -130 -7 -17 -16 -30 -20 -30
-12 0 -10 -128 2 -135 6 -3 10 -14 10 -23 0 -33 143 -162 180 -162 5 0 10 -4
10 -10 0 -5 7 -10 15 -10 8 0 15 -4 15 -9 0 -5 8 -11 18 -15 27 -9 84 -43 121
-73 59 -48 149 -142 156 -163 3 -11 11 -20 16 -20 5 0 9 -7 9 -15 0 -8 3 -15
8 -15 4 0 13 -15 20 -32 8 -18 18 -42 23 -53 20 -43 30 -167 18 -229 -11 -62
-65 -186 -80 -186 -5 0 -9 -5 -9 -10 0 -10 -49 -91 -61 -100 -15 -11 -49 -82
-49 -100 0 -26 -30 -26 -37 0 -3 11 -9 20 -13 20 -12 0 -21 94 -14 138 4 28
23 62 61 109 69 86 95 141 96 201 1 51 -23 107 -55 132 -11 8 -30 24 -41 35
-22 20 -37 28 -112 60 -22 9 -66 30 -97 46 -31 16 -64 29 -73 29 -8 0 -15 4
-15 9 0 5 -16 15 -35 22 -19 7 -35 17 -35 21 0 4 -7 8 -15 8 -8 0 -15 5 -15
10 0 6 -5 10 -12 10 -40 0 -172 161 -184 226 -3 19 -10 37 -15 40 -13 7 -11
241 1 249 6 3 10 17 10 31 0 22 36 112 49 124 3 3 13 21 22 40 29 62 168 210
199 210 5 0 10 3 10 8 0 19 145 74 225 86 46 7 247 -3 259 -13z m-1349 -980
c122 -9 223 -23 305 -41 25 -6 74 -15 109 -20 36 -6 83 -17 106 -24 22 -8 58
-17 80 -21 22 -4 45 -11 50 -15 6 -4 45 -18 87 -31 43 -13 78 -27 78 -31 0 -5
8 -8 18 -8 10 0 50 -16 91 -35 40 -19 78 -35 86 -35 7 0 18 -7 25 -15 7 -9 27
-22 45 -31 70 -33 97 -81 76 -133 -7 -15 -40 -57 -74 -92 -62 -64 -87 -117
-87 -184 0 -45 70 -207 102 -236 10 -9 18 -21 18 -26 0 -36 185 -203 224 -203
9 0 16 -4 16 -10 0 -5 9 -10 20 -10 11 0 28 -4 38 -9 9 -5 43 -19 75 -32 89
-34 91 -40 83 -232 -3 -89 -9 -180 -11 -202 -3 -22 -12 -92 -20 -155 -8 -63
-15 -131 -15 -151 0 -21 -4 -41 -10 -44 -5 -3 -10 -31 -10 -61 0 -30 -4 -54
-10 -54 -5 0 -10 -17 -10 -37 0 -40 -18 -146 -30 -178 -4 -11 -13 -49 -19 -85
-6 -36 -15 -83 -20 -105 -6 -22 -18 -76 -27 -120 -9 -44 -20 -88 -25 -97 -5
-10 -9 -25 -9 -35 0 -19 -18 -79 -31 -105 -5 -10 -9 -29 -9 -42 0 -14 -4 -27
-9 -30 -5 -3 -12 -25 -15 -49 -4 -24 -16 -67 -26 -96 -11 -28 -20 -62 -20 -76
0 -14 -4 -25 -10 -25 -5 0 -10 -11 -10 -24 0 -14 -4 -28 -10 -31 -6 -3 -10
-17 -10 -30 0 -13 -4 -27 -10 -30 -5 -3 -10 -19 -10 -36 0 -16 -4 -29 -9 -29
-5 0 -12 -17 -16 -37 -6 -36 -36 -117 -56 -155 -5 -10 -9 -27 -9 -37 0 -11 -4
-23 -10 -26 -6 -3 -10 -13 -10 -21 0 -8 -8 -33 -19 -57 -10 -23 -33 -80 -51
-127 -18 -47 -41 -104 -52 -127 -10 -23 -18 -44 -18 -47 0 -14 -36 -86 -42
-86 -5 0 -8 -7 -8 -15 0 -8 -11 -39 -25 -69 -14 -30 -25 -60 -25 -66 0 -7 -9
-24 -19 -39 -11 -15 -26 -46 -33 -69 -7 -23 -16 -42 -20 -42 -5 0 -8 -9 -8
-19 0 -11 -4 -22 -9 -25 -10 -7 -101 -192 -101 -206 0 -6 -4 -10 -10 -10 -5 0
-10 -9 -10 -20 0 -11 -4 -20 -10 -20 -5 0 -10 -7 -10 -16 0 -9 -8 -28 -19 -42
-10 -15 -22 -38 -26 -52 -4 -14 -20 -43 -36 -64 -16 -22 -29 -46 -29 -53 0 -7
-3 -13 -8 -13 -4 0 -13 -13 -20 -29 -12 -26 -53 -47 -67 -33 -18 18 13 130 45
162 3 3 15 25 27 50 11 25 28 59 35 75 8 17 24 47 36 68 12 21 22 44 22 52 0
8 4 15 8 15 5 0 15 18 22 40 7 22 16 40 19 40 3 0 12 15 20 33 8 17 22 51 32
74 11 23 19 44 19 47 0 14 36 86 42 86 5 0 8 7 8 15 0 8 4 23 9 33 15 29 29
66 37 92 4 14 20 53 35 88 16 34 29 67 29 72 0 6 4 18 9 28 5 9 15 38 23 65 7
26 16 47 20 47 4 0 8 10 8 23 0 13 4 27 8 32 5 6 21 53 36 105 16 52 32 103
37 112 5 10 9 27 9 38 0 11 4 20 9 20 5 0 11 15 14 33 9 54 18 91 27 112 5 11
14 43 19 70 6 28 22 91 36 140 13 50 25 102 25 118 0 15 4 35 9 45 11 21 31
128 31 165 0 14 5 29 10 32 6 3 10 23 10 43 0 20 9 89 19 152 32 192 41 280
51 507 5 120 12 270 16 333 5 88 3 139 -10 215 -10 55 -21 104 -27 110 -5 5
-9 15 -9 22 0 34 -151 153 -194 153 -9 0 -16 4 -16 8 0 5 -18 15 -40 22 -22 7
-40 17 -40 22 0 4 -11 8 -25 8 -14 0 -25 5 -25 10 0 6 -8 10 -17 10 -10 0 -31
7 -48 16 -16 8 -57 24 -90 35 -33 11 -69 23 -80 28 -60 25 -78 31 -98 31 -13
0 -27 4 -32 9 -6 4 -39 14 -75 21 -36 7 -69 16 -75 20 -11 8 -42 15 -152 33
-39 7 -75 15 -79 20 -4 4 -21 7 -38 7 -52 0 -150 24 -162 39 -9 11 -9 22 -1
39 10 22 15 23 81 18 281 -21 563 -63 711 -106 22 -7 57 -14 78 -17 20 -3 40
-9 43 -14 3 -5 16 -9 30 -9 13 0 24 -4 24 -8 0 -4 19 -13 42 -19 32 -9 44 -8
54 1 10 10 -11 37 -102 130 -86 89 -115 126 -120 152 -3 19 -10 34 -15 34 -16
0 -10 65 10 106 11 22 45 67 75 100 30 32 56 68 56 79 0 21 -41 75 -57 75 -15
0 -63 24 -63 33 0 4 -11 7 -25 7 -14 0 -25 5 -25 10 0 6 -9 10 -20 10 -12 0
-37 8 -58 19 -20 10 -64 26 -97 36 -33 10 -64 21 -70 25 -5 4 -32 13 -60 19
-27 7 -57 16 -65 19 -30 11 -200 49 -305 68 -70 12 -430 16 -537 5 -109 -10
-324 -54 -360 -72 -10 -5 -26 -9 -35 -9 -21 0 -89 -23 -99 -33 -4 -4 -18 -7
-30 -7 -13 0 -26 -4 -29 -10 -3 -5 -14 -10 -23 -10 -9 0 -28 -6 -42 -13 -14
-7 -45 -19 -70 -27 -25 -8 -60 -22 -78 -32 -18 -10 -39 -18 -47 -18 -8 0 -15
-4 -15 -10 0 -5 -7 -10 -16 -10 -24 0 -64 -47 -64 -75 0 -13 15 -39 33 -57 87
-93 107 -127 107 -185 0 -80 -17 -106 -163 -255 -97 -99 -105 -123 -35 -106
24 6 47 15 53 19 5 5 19 9 32 9 13 0 31 4 41 9 21 12 124 39 222 58 41 8 98
18 125 24 95 19 260 38 328 39 38 0 67 4 67 10 0 6 31 10 73 10 61 0 74 -3 85
-20 21 -35 -2 -55 -79 -68 -38 -7 -83 -12 -99 -12 -17 0 -30 -4 -30 -8 0 -5
-35 -13 -77 -19 -43 -6 -94 -15 -113 -21 -19 -6 -71 -20 -115 -32 -125 -33
-139 -37 -160 -45 -26 -9 -66 -25 -85 -35 -9 -4 -31 -11 -50 -15 -19 -4 -39
-11 -45 -15 -5 -4 -30 -14 -55 -21 -25 -7 -47 -15 -50 -19 -11 -11 -51 -30
-65 -30 -8 0 -15 -4 -15 -10 0 -5 -9 -10 -20 -10 -11 0 -20 -4 -20 -10 0 -5
-7 -10 -16 -10 -17 0 -128 -62 -150 -85 -8 -7 -14 -18 -14 -23 0 -6 -3 -12 -7
-14 -18 -7 -53 -88 -53 -120 0 -19 -5 -39 -10 -44 -23 -23 17 -925 41 -940 5
-3 9 -34 9 -70 0 -36 4 -64 10 -64 6 0 10 -20 10 -44 0 -60 63 -393 81 -428 5
-10 9 -31 9 -47 0 -17 5 -33 10 -36 5 -3 10 -19 10 -36 0 -16 4 -37 9 -47 10
-20 51 -183 58 -229 3 -18 9 -33 14 -33 5 0 9 -13 9 -30 0 -16 4 -30 9 -30 5
0 11 -15 14 -32 9 -52 19 -93 26 -98 3 -3 17 -39 30 -80 14 -41 28 -79 32 -85
4 -5 10 -26 14 -45 7 -32 11 -41 35 -90 6 -11 10 -27 10 -35 0 -8 5 -15 10
-15 6 0 10 -11 10 -25 0 -14 5 -25 10 -25 6 0 10 -7 10 -15 0 -9 9 -35 20 -57
11 -23 20 -46 20 -51 0 -5 16 -43 35 -84 19 -41 35 -81 35 -89 0 -8 5 -14 10
-14 6 0 10 -6 10 -14 0 -17 42 -100 53 -104 4 -2 7 -11 7 -20 0 -22 108 -234
123 -240 4 -2 7 -10 7 -17 0 -16 32 -79 42 -83 4 -2 12 -28 19 -58 10 -45 10
-57 0 -64 -18 -11 -51 -1 -51 16 0 8 -5 14 -10 14 -6 0 -18 17 -28 38 -9 20
-21 42 -27 48 -5 6 -48 87 -95 180 -47 93 -88 171 -92 172 -5 2 -8 12 -8 23 0
10 -4 19 -10 19 -5 0 -10 6 -10 14 0 8 -9 31 -19 53 -53 106 -91 189 -91 201
0 6 -4 12 -10 12 -5 0 -10 7 -10 15 0 9 -16 53 -36 98 -20 45 -41 93 -46 107
-6 14 -14 33 -19 42 -5 10 -9 25 -9 33 0 8 -4 15 -10 15 -5 0 -10 11 -10 25 0
14 -4 25 -10 25 -5 0 -10 7 -10 15 0 8 -4 24 -10 35 -24 49 -28 58 -35 90 -7
32 -11 41 -35 90 -5 11 -10 29 -10 40 0 11 -4 20 -10 20 -5 0 -10 11 -10 24 0
14 -4 28 -10 31 -5 3 -10 15 -10 26 0 10 -4 27 -9 37 -24 48 -101 284 -101
312 0 11 -4 20 -8 20 -5 0 -15 30 -22 66 -8 36 -17 67 -22 70 -4 3 -8 16 -8
30 0 13 -4 32 -10 42 -5 9 -14 37 -19 62 -5 25 -17 70 -25 100 -9 30 -16 67
-16 82 0 15 -4 30 -10 33 -5 3 -10 21 -10 40 0 19 -4 36 -9 39 -4 3 -11 25
-15 48 -12 85 -17 113 -25 133 -5 11 -16 67 -25 125 -10 58 -24 146 -32 195
-22 135 -39 262 -54 415 -12 115 -15 338 -5 363 9 21 105 67 140 67 14 0 25 5
25 10 0 6 9 10 21 10 11 0 45 16 74 36 59 39 165 135 165 150 0 5 9 16 20 24
11 8 20 20 20 27 0 7 3 13 8 13 4 0 16 20 27 45 11 25 23 45 28 45 4 0 7 9 7
19 0 11 5 23 10 26 6 3 10 19 10 36 0 16 5 38 12 48 9 15 9 25 0 46 -7 14 -12
35 -12 46 0 26 -31 71 -84 124 -51 50 -66 77 -66 112 0 28 38 83 58 83 6 0 12
4 14 8 4 10 232 122 247 122 6 0 20 5 31 10 11 6 29 15 40 20 11 6 29 10 39
10 11 0 23 5 26 10 3 6 17 10 31 10 13 0 24 5 24 10 0 6 10 10 23 10 12 0 47
7 77 16 30 9 87 22 125 30 39 8 93 19 120 25 83 17 183 29 317 38 71 4 131 11
135 15 8 8 137 3 338 -13z m453 -1588 c2 -12 -13 -69 -32 -127 -20 -57 -36
-111 -36 -120 0 -8 -6 -30 -14 -48 -8 -18 -27 -73 -41 -123 -15 -49 -35 -108
-45 -130 -10 -22 -21 -56 -25 -75 -4 -19 -14 -47 -21 -62 -8 -15 -14 -37 -14
-49 0 -12 -11 -45 -24 -73 -22 -47 -32 -78 -82 -254 -27 -97 -29 -96 171 -100
117 -2 172 1 181 9 12 9 14 43 13 158 -2 233 8 460 21 477 15 16 102 44 141
44 24 0 105 18 160 35 9 3 24 -1 33 -10 13 -14 15 -60 16 -357 0 -215 4 -346
10 -352 5 -5 61 -10 122 -11 62 0 119 -4 126 -8 20 -13 12 -66 -26 -177 -42
-119 -53 -130 -142 -130 -88 0 -84 7 -90 -214 -4 -156 -8 -198 -20 -210 -25
-24 -320 -39 -342 -18 -9 9 -19 194 -18 319 l1 92 -30 15 c-36 19 -92 21 -441
18 -264 -3 -337 1 -354 18 -19 19 37 313 72 375 12 22 46 123 66 195 6 25 19
61 28 80 9 19 24 67 32 105 9 39 23 75 32 81 8 7 18 29 21 50 4 22 17 60 30
86 13 25 27 68 33 95 14 71 24 102 54 160 14 29 26 65 26 81 0 16 7 44 16 63
52 115 65 120 249 117 136 -3 140 -4 143 -25z m-930 -1583 l189 0 -8 -42 c-4
-24 -12 -63 -18 -88 -6 -25 -10 -62 -11 -82 0 -21 -4 -38 -10 -38 -5 0 -10
-17 -10 -37 l0 -38 -113 1 c-61 0 -295 1 -520 2 l-408 2 3 158 3 157 168 3
167 2 0 591 0 591 -27 -7 c-30 -7 -173 -33 -235 -42 l-38 -5 0 166 c0 91 3
166 8 166 18 1 182 30 222 40 62 16 134 28 208 36 34 4 62 10 62 14 0 5 19 10
43 13 63 8 121 18 127 24 3 3 6 -353 8 -791 l2 -796 188 0z"/>
</g>
</svg>
